<mxfile host="app.diagrams.net" agent="Mozilla/5.0 (Windows NT 10.0; Win64; x64) AppleWebKit/537.36 (KHTML, like Gecko) Chrome/134.0.0.0 Safari/537.36" version="26.2.4">
  <diagram name="PÃ¡gina-1" id="GcpDfyWeQGUS3eHMbgrf">
    <mxGraphModel grid="1" page="1" gridSize="10" guides="1" tooltips="1" connect="1" arrows="1" fold="1" pageScale="1" pageWidth="827" pageHeight="1169" math="0" shadow="0">
      <root>
        <mxCell id="0" />
        <mxCell id="1" parent="0" />
        <mxCell id="5nn11LQ12B-WcMxJTsw2-5" style="edgeStyle=orthogonalEdgeStyle;rounded=0;orthogonalLoop=1;jettySize=auto;html=1;entryX=0;entryY=0.75;entryDx=0;entryDy=0;" edge="1" parent="1" source="5nn11LQ12B-WcMxJTsw2-8" target="5nn11LQ12B-WcMxJTsw2-3">
          <mxGeometry relative="1" as="geometry" />
        </mxCell>
        <mxCell id="5nn11LQ12B-WcMxJTsw2-1" value="CLIENTES" style="rounded=0;whiteSpace=wrap;html=1;" vertex="1" parent="1">
          <mxGeometry x="170" y="90" width="110" height="30" as="geometry" />
        </mxCell>
        <mxCell id="5nn11LQ12B-WcMxJTsw2-2" value="PRODUCTOS" style="rounded=0;whiteSpace=wrap;html=1;" vertex="1" parent="1">
          <mxGeometry x="435" y="110" width="110" height="30" as="geometry" />
        </mxCell>
        <mxCell id="5nn11LQ12B-WcMxJTsw2-3" value="PEDIDOS" style="rounded=0;whiteSpace=wrap;html=1;" vertex="1" parent="1">
          <mxGeometry x="310" y="290" width="110" height="30" as="geometry" />
        </mxCell>
        <mxCell id="5nn11LQ12B-WcMxJTsw2-9" value="" style="edgeStyle=orthogonalEdgeStyle;rounded=0;orthogonalLoop=1;jettySize=auto;html=1;entryX=0;entryY=0.75;entryDx=0;entryDy=0;" edge="1" parent="1" source="5nn11LQ12B-WcMxJTsw2-1" target="5nn11LQ12B-WcMxJTsw2-8">
          <mxGeometry relative="1" as="geometry">
            <mxPoint x="280" y="145" as="sourcePoint" />
            <mxPoint x="320" y="263" as="targetPoint" />
          </mxGeometry>
        </mxCell>
        <mxCell id="5nn11LQ12B-WcMxJTsw2-8" value="" style="rhombus;whiteSpace=wrap;html=1;rotation=90;" vertex="1" parent="1">
          <mxGeometry x="210" y="190" width="40" height="50" as="geometry" />
        </mxCell>
        <mxCell id="5nn11LQ12B-WcMxJTsw2-11" value="hace" style="text;html=1;align=center;verticalAlign=middle;whiteSpace=wrap;rounded=0;" vertex="1" parent="1">
          <mxGeometry x="200" y="200" width="60" height="30" as="geometry" />
        </mxCell>
        <mxCell id="5nn11LQ12B-WcMxJTsw2-13" value="" style="rhombus;whiteSpace=wrap;html=1;" vertex="1" parent="1">
          <mxGeometry x="460" y="230" width="60" height="45" as="geometry" />
        </mxCell>
        <mxCell id="5nn11LQ12B-WcMxJTsw2-15" value="contiene" style="text;html=1;align=center;verticalAlign=middle;whiteSpace=wrap;rounded=0;" vertex="1" parent="1">
          <mxGeometry x="462.5" y="237.5" width="55" height="30" as="geometry" />
        </mxCell>
        <mxCell id="5nn11LQ12B-WcMxJTsw2-17" value="1:N" style="text;html=1;align=center;verticalAlign=middle;whiteSpace=wrap;rounded=0;" vertex="1" parent="1">
          <mxGeometry x="160" y="200" width="60" height="30" as="geometry" />
        </mxCell>
        <mxCell id="5nn11LQ12B-WcMxJTsw2-24" value="" style="endArrow=classic;startArrow=classic;html=1;rounded=0;exitX=1;exitY=0.25;exitDx=0;exitDy=0;entryX=0.5;entryY=1;entryDx=0;entryDy=0;" edge="1" parent="1" source="5nn11LQ12B-WcMxJTsw2-3" target="5nn11LQ12B-WcMxJTsw2-13">
          <mxGeometry width="50" height="50" relative="1" as="geometry">
            <mxPoint x="430" y="300" as="sourcePoint" />
            <mxPoint x="480" y="250" as="targetPoint" />
            <Array as="points">
              <mxPoint x="480" y="300" />
            </Array>
          </mxGeometry>
        </mxCell>
        <mxCell id="5nn11LQ12B-WcMxJTsw2-25" value="" style="endArrow=classic;startArrow=classic;html=1;rounded=0;" edge="1" parent="1" target="5nn11LQ12B-WcMxJTsw2-2">
          <mxGeometry width="50" height="50" relative="1" as="geometry">
            <mxPoint x="490" y="230" as="sourcePoint" />
            <mxPoint x="540" y="180" as="targetPoint" />
          </mxGeometry>
        </mxCell>
        <mxCell id="5nn11LQ12B-WcMxJTsw2-26" value="M:N" style="text;html=1;align=center;verticalAlign=middle;whiteSpace=wrap;rounded=0;" vertex="1" parent="1">
          <mxGeometry x="530" y="247.5" width="50" height="10" as="geometry" />
        </mxCell>
        <mxCell id="5nn11LQ12B-WcMxJTsw2-33" style="edgeStyle=orthogonalEdgeStyle;rounded=0;orthogonalLoop=1;jettySize=auto;html=1;entryX=1;entryY=0;entryDx=0;entryDy=0;" edge="1" parent="1" source="5nn11LQ12B-WcMxJTsw2-27" target="5nn11LQ12B-WcMxJTsw2-2">
          <mxGeometry relative="1" as="geometry" />
        </mxCell>
        <mxCell id="5nn11LQ12B-WcMxJTsw2-27" value="&lt;u&gt;Codigo&lt;/u&gt;" style="ellipse;whiteSpace=wrap;html=1;" vertex="1" parent="1">
          <mxGeometry x="517.5" y="50" width="75" height="40" as="geometry" />
        </mxCell>
        <mxCell id="5nn11LQ12B-WcMxJTsw2-34" style="edgeStyle=orthogonalEdgeStyle;rounded=0;orthogonalLoop=1;jettySize=auto;html=1;entryX=1;entryY=0.75;entryDx=0;entryDy=0;" edge="1" parent="1" source="5nn11LQ12B-WcMxJTsw2-28" target="5nn11LQ12B-WcMxJTsw2-2">
          <mxGeometry relative="1" as="geometry" />
        </mxCell>
        <mxCell id="5nn11LQ12B-WcMxJTsw2-28" value="nombre" style="ellipse;whiteSpace=wrap;html=1;" vertex="1" parent="1">
          <mxGeometry x="590" y="90" width="75" height="40" as="geometry" />
        </mxCell>
        <mxCell id="5nn11LQ12B-WcMxJTsw2-30" value="precio" style="ellipse;whiteSpace=wrap;html=1;" vertex="1" parent="1">
          <mxGeometry x="630" y="140" width="70" height="40" as="geometry" />
        </mxCell>
        <mxCell id="5nn11LQ12B-WcMxJTsw2-32" style="edgeStyle=orthogonalEdgeStyle;rounded=0;orthogonalLoop=1;jettySize=auto;html=1;entryX=0.25;entryY=0;entryDx=0;entryDy=0;" edge="1" parent="1" source="5nn11LQ12B-WcMxJTsw2-31" target="5nn11LQ12B-WcMxJTsw2-2">
          <mxGeometry relative="1" as="geometry" />
        </mxCell>
        <mxCell id="5nn11LQ12B-WcMxJTsw2-31" value="stock" style="ellipse;whiteSpace=wrap;html=1;" vertex="1" parent="1">
          <mxGeometry x="590" y="200" width="75" height="40" as="geometry" />
        </mxCell>
        <mxCell id="5nn11LQ12B-WcMxJTsw2-35" style="edgeStyle=orthogonalEdgeStyle;rounded=0;orthogonalLoop=1;jettySize=auto;html=1;entryX=0.898;entryY=1.06;entryDx=0;entryDy=0;entryPerimeter=0;" edge="1" parent="1" source="5nn11LQ12B-WcMxJTsw2-30" target="5nn11LQ12B-WcMxJTsw2-2">
          <mxGeometry relative="1" as="geometry">
            <mxPoint x="550" y="144" as="targetPoint" />
          </mxGeometry>
        </mxCell>
        <mxCell id="5nn11LQ12B-WcMxJTsw2-40" style="edgeStyle=orthogonalEdgeStyle;rounded=0;orthogonalLoop=1;jettySize=auto;html=1;entryX=0.25;entryY=1;entryDx=0;entryDy=0;" edge="1" parent="1" source="5nn11LQ12B-WcMxJTsw2-36" target="5nn11LQ12B-WcMxJTsw2-3">
          <mxGeometry relative="1" as="geometry" />
        </mxCell>
        <mxCell id="5nn11LQ12B-WcMxJTsw2-36" value="&lt;u&gt;ID_pedido&lt;/u&gt;" style="ellipse;whiteSpace=wrap;html=1;" vertex="1" parent="1">
          <mxGeometry x="250" y="350" width="80" height="40" as="geometry" />
        </mxCell>
        <mxCell id="5nn11LQ12B-WcMxJTsw2-39" style="edgeStyle=orthogonalEdgeStyle;rounded=0;orthogonalLoop=1;jettySize=auto;html=1;entryX=0.75;entryY=1;entryDx=0;entryDy=0;" edge="1" parent="1" source="5nn11LQ12B-WcMxJTsw2-37" target="5nn11LQ12B-WcMxJTsw2-3">
          <mxGeometry relative="1" as="geometry" />
        </mxCell>
        <mxCell id="5nn11LQ12B-WcMxJTsw2-37" value="cant_productos" style="ellipse;whiteSpace=wrap;html=1;" vertex="1" parent="1">
          <mxGeometry x="345" y="360" width="90" height="40" as="geometry" />
        </mxCell>
        <mxCell id="5nn11LQ12B-WcMxJTsw2-41" value="nombre" style="ellipse;whiteSpace=wrap;html=1;" vertex="1" parent="1">
          <mxGeometry x="140" y="20" width="80" height="40" as="geometry" />
        </mxCell>
        <mxCell id="5nn11LQ12B-WcMxJTsw2-48" style="edgeStyle=orthogonalEdgeStyle;rounded=0;orthogonalLoop=1;jettySize=auto;html=1;entryX=0;entryY=0.5;entryDx=0;entryDy=0;" edge="1" parent="1" source="5nn11LQ12B-WcMxJTsw2-43" target="5nn11LQ12B-WcMxJTsw2-1">
          <mxGeometry relative="1" as="geometry" />
        </mxCell>
        <mxCell id="5nn11LQ12B-WcMxJTsw2-43" value="&lt;u&gt;DNI&lt;/u&gt;" style="ellipse;whiteSpace=wrap;html=1;" vertex="1" parent="1">
          <mxGeometry x="50" y="70" width="80" height="40" as="geometry" />
        </mxCell>
        <mxCell id="5nn11LQ12B-WcMxJTsw2-44" value="telefono" style="ellipse;whiteSpace=wrap;html=1;" vertex="1" parent="1">
          <mxGeometry x="30" y="120" width="80" height="40" as="geometry" />
        </mxCell>
        <mxCell id="5nn11LQ12B-WcMxJTsw2-45" value="mail" style="ellipse;whiteSpace=wrap;html=1;" vertex="1" parent="1">
          <mxGeometry x="70" y="160" width="80" height="40" as="geometry" />
        </mxCell>
        <mxCell id="5nn11LQ12B-WcMxJTsw2-49" style="edgeStyle=orthogonalEdgeStyle;rounded=0;orthogonalLoop=1;jettySize=auto;html=1;entryX=0.115;entryY=0.949;entryDx=0;entryDy=0;entryPerimeter=0;" edge="1" parent="1" source="5nn11LQ12B-WcMxJTsw2-44" target="5nn11LQ12B-WcMxJTsw2-1">
          <mxGeometry relative="1" as="geometry" />
        </mxCell>
        <mxCell id="5nn11LQ12B-WcMxJTsw2-50" style="edgeStyle=orthogonalEdgeStyle;rounded=0;orthogonalLoop=1;jettySize=auto;html=1;entryX=0.166;entryY=0.875;entryDx=0;entryDy=0;entryPerimeter=0;" edge="1" parent="1" source="5nn11LQ12B-WcMxJTsw2-45" target="5nn11LQ12B-WcMxJTsw2-1">
          <mxGeometry relative="1" as="geometry" />
        </mxCell>
        <mxCell id="5nn11LQ12B-WcMxJTsw2-53" style="edgeStyle=orthogonalEdgeStyle;rounded=0;orthogonalLoop=1;jettySize=auto;html=1;entryX=0.085;entryY=0.06;entryDx=0;entryDy=0;entryPerimeter=0;" edge="1" parent="1" source="5nn11LQ12B-WcMxJTsw2-41" target="5nn11LQ12B-WcMxJTsw2-1">
          <mxGeometry relative="1" as="geometry" />
        </mxCell>
        <mxCell id="5nn11LQ12B-WcMxJTsw2-58" style="edgeStyle=orthogonalEdgeStyle;rounded=0;orthogonalLoop=1;jettySize=auto;html=1;entryX=1;entryY=0.75;entryDx=0;entryDy=0;" edge="1" parent="1" source="5nn11LQ12B-WcMxJTsw2-57" target="5nn11LQ12B-WcMxJTsw2-3">
          <mxGeometry relative="1" as="geometry" />
        </mxCell>
        <mxCell id="5nn11LQ12B-WcMxJTsw2-57" value="total" style="ellipse;whiteSpace=wrap;html=1;" vertex="1" parent="1">
          <mxGeometry x="472.5" y="330" width="72.5" height="30" as="geometry" />
        </mxCell>
        <mxCell id="P_LFW2BpgVA80cuNh8WB-5" value="" style="edgeStyle=orthogonalEdgeStyle;rounded=0;orthogonalLoop=1;jettySize=auto;html=1;" edge="1" parent="1" source="P_LFW2BpgVA80cuNh8WB-1" target="P_LFW2BpgVA80cuNh8WB-4">
          <mxGeometry relative="1" as="geometry" />
        </mxCell>
        <mxCell id="P_LFW2BpgVA80cuNh8WB-1" value="Proveedor" style="rounded=0;whiteSpace=wrap;html=1;" vertex="1" parent="1">
          <mxGeometry x="246.25" y="-120" width="110" height="30" as="geometry" />
        </mxCell>
        <mxCell id="P_LFW2BpgVA80cuNh8WB-12" style="edgeStyle=orthogonalEdgeStyle;rounded=0;orthogonalLoop=1;jettySize=auto;html=1;" edge="1" parent="1" source="P_LFW2BpgVA80cuNh8WB-4" target="P_LFW2BpgVA80cuNh8WB-11">
          <mxGeometry relative="1" as="geometry" />
        </mxCell>
        <mxCell id="P_LFW2BpgVA80cuNh8WB-4" value="suministra" style="rhombus;whiteSpace=wrap;html=1;rounded=0;" vertex="1" parent="1">
          <mxGeometry x="400" y="-145" width="80" height="80" as="geometry" />
        </mxCell>
        <mxCell id="P_LFW2BpgVA80cuNh8WB-9" style="edgeStyle=orthogonalEdgeStyle;rounded=0;orthogonalLoop=1;jettySize=auto;html=1;" edge="1" parent="1" source="P_LFW2BpgVA80cuNh8WB-8" target="5nn11LQ12B-WcMxJTsw2-3">
          <mxGeometry relative="1" as="geometry" />
        </mxCell>
        <mxCell id="P_LFW2BpgVA80cuNh8WB-8" value="&lt;u&gt;ID_producto&lt;/u&gt;" style="ellipse;whiteSpace=wrap;html=1;" vertex="1" parent="1">
          <mxGeometry x="170" y="320" width="80" height="40" as="geometry" />
        </mxCell>
        <mxCell id="P_LFW2BpgVA80cuNh8WB-10" value="&lt;u&gt;ID_proveedor&lt;/u&gt;&lt;br&gt;&lt;div&gt;nombre&lt;/div&gt;&lt;div&gt;telefono&lt;/div&gt;&lt;div&gt;direccion&lt;/div&gt;" style="ellipse;whiteSpace=wrap;html=1;" vertex="1" parent="1">
          <mxGeometry x="170" y="-170" width="96.25" height="90" as="geometry" />
        </mxCell>
        <mxCell id="P_LFW2BpgVA80cuNh8WB-23" style="edgeStyle=orthogonalEdgeStyle;rounded=0;orthogonalLoop=1;jettySize=auto;html=1;entryX=0.5;entryY=0;entryDx=0;entryDy=0;" edge="1" parent="1" source="P_LFW2BpgVA80cuNh8WB-11" target="P_LFW2BpgVA80cuNh8WB-22">
          <mxGeometry relative="1" as="geometry" />
        </mxCell>
        <mxCell id="P_LFW2BpgVA80cuNh8WB-11" value="Tienda" style="rounded=0;whiteSpace=wrap;html=1;" vertex="1" parent="1">
          <mxGeometry x="350" y="-30" width="110" height="30" as="geometry" />
        </mxCell>
        <mxCell id="P_LFW2BpgVA80cuNh8WB-18" value="N:1" style="text;html=1;align=center;verticalAlign=middle;whiteSpace=wrap;rounded=0;" vertex="1" parent="1">
          <mxGeometry x="412.5" y="-160" width="50" height="10" as="geometry" />
        </mxCell>
        <mxCell id="P_LFW2BpgVA80cuNh8WB-24" style="edgeStyle=orthogonalEdgeStyle;rounded=0;orthogonalLoop=1;jettySize=auto;html=1;entryX=0;entryY=0.5;entryDx=0;entryDy=0;" edge="1" parent="1" source="P_LFW2BpgVA80cuNh8WB-22" target="5nn11LQ12B-WcMxJTsw2-2">
          <mxGeometry relative="1" as="geometry" />
        </mxCell>
        <mxCell id="P_LFW2BpgVA80cuNh8WB-22" value="tiene" style="rhombus;whiteSpace=wrap;html=1;" vertex="1" parent="1">
          <mxGeometry x="379" y="30" width="70" height="70" as="geometry" />
        </mxCell>
        <mxCell id="P_LFW2BpgVA80cuNh8WB-25" value="N:1" style="text;html=1;align=center;verticalAlign=middle;whiteSpace=wrap;rounded=0;" vertex="1" parent="1">
          <mxGeometry x="435" y="60" width="50" height="10" as="geometry" />
        </mxCell>
        <mxCell id="P_LFW2BpgVA80cuNh8WB-26" value="&lt;u&gt;ID_proveedor&lt;/u&gt;&lt;div&gt;nombre&lt;/div&gt;&lt;div&gt;ubicacion&lt;/div&gt;&lt;div&gt;&lt;u&gt;Cuit&lt;/u&gt;&lt;/div&gt;&lt;div&gt;&lt;u&gt;&lt;br&gt;&lt;/u&gt;&lt;/div&gt;" style="ellipse;whiteSpace=wrap;html=1;" vertex="1" parent="1">
          <mxGeometry x="450" y="-60" width="97.5" height="90" as="geometry" />
        </mxCell>
      </root>
    </mxGraphModel>
  </diagram>
</mxfile>
